#N canvas 0 21 1022 711 12;
#X text 5 4 abstractions;
#X text 4 24 spectral processing;
#X text 4 46 granular live processing;
#X obj 7 139 master;
#X obj 7 80 osc~ 60;
#X obj 7 107 *~;
#X obj 77 79 phasor~ -1;
#X obj 72 346 noise~;
#X obj 13 491 master;
#X obj 15 432 lop~ 300;
#X obj 15 407 lop~ 300;
#X obj 128 334 vsl 20 170 0 2000 0 0 empty empty empty 0 -9 0 12 #fcfcfc #000000 #000000 0 1;
#X obj 257 338 vsl 20 170 0 10000 0 0 empty empty empty 0 -9 0 12 #fcfcfc #000000 #000000 0 1;
#X obj 170 410 hip~ 300;
#X obj 170 435 hip~ 300;
#X obj 160 464 master;
#X obj 303 418 lop~ 300;
#X obj 303 393 lop~ 300;
#X obj 391 331 vsl 20 170 0 10000 0 0 empty empty empty 0 -9 0 12 #fcfcfc #000000 #000000 0 1;
#X obj 301 449 hip~ 300;
#X obj 301 474 hip~ 300;
#X obj 297 530 master;
#X obj 297 358 phasor~ 50;
#X obj 1012 120 +~;
#X obj 632 493 master;
#X obj 741 492 master;
#X obj 852 492 master;
#X obj 961 491 master;
#X obj 1063 487 master;
#X obj 1172 486 master;
#X obj 1283 486 master;
#X obj 1392 485 master;
#X obj 684 226 bp~ 100 20, f 11;
#X obj 778 225 bp~ 200 20, f 11;
#X obj 870 224 bp~ 400 20, f 11;
#X obj 964 223 bp~ 800 20, f 11;
#X obj 1057 222 bp~ 1600 20;
#X obj 1151 221 bp~ 3200 20;
#X obj 1243 220 bp~ 6400 20;
#X obj 1337 219 bp~ 12800 20;
#X obj 692 285 +~ 1;
#X obj 693 310 /~ 2;
#X obj 656 340 *~;
#X obj 1201 282 +~ 1;
#X obj 1202 307 /~ 2;
#X obj 1165 337 *~;
#X obj 1201 257 osc~ 0.12;
#X obj 1095 296 +~ 1;
#X obj 1096 321 /~ 2;
#X obj 1059 351 *~;
#X obj 1321 289 +~ 1;
#X obj 1322 314 /~ 2;
#X obj 1285 344 *~;
#X obj 1420 288 +~ 1;
#X obj 1421 313 /~ 2;
#X obj 1384 343 *~;
#X obj 800 297 +~ 1;
#X obj 801 322 /~ 2;
#X obj 764 352 *~;
#X obj 906 306 +~ 1;
#X obj 907 331 /~ 2;
#X obj 870 361 *~;
#X obj 1000 307 +~ 1;
#X obj 1001 332 /~ 2;
#X obj 964 362 *~;
#X obj 906 281 osc~ 0.5;
#X obj 1322 264 osc~ 2;
#X obj 1420 263 osc~ 3.4;
#X obj 693 260 osc~ 0.01;
#X obj 1095 271 osc~ 5;
#X obj 1000 282 osc~ 10;
#X obj 800 272 osc~ 6;
#X obj 1016 24 phasor~ 40;
#X obj 1261 69 noise~;
#X obj 1259 95 *~ 0.1;
#X obj 646 390 delwrite~ a 1000;
#X obj 643 465 delread4~ a;
#X obj 1015 85 *~;
#X obj 768 387 delwrite~ b 1000;
#X obj 744 469 delread4~ b;
#X obj 889 389 delwrite~ c 1000;
#X obj 856 466 delread4~ c;
#X obj 1008 388 delwrite~ d 1000;
#X obj 962 464 delread4~ d;
#X obj 756 434 sig~ 125;
#X obj 856 437 sig~ 250;
#X obj 962 434 sig~ 1000;
#X msg 1129 31 1 \, 0 100;
#X obj 1125 69 line~;
#X obj 1364 42 adc~ 1;
#X obj 1140 387 delwrite~ e 1000;
#X obj 1262 384 delwrite~ f 1000;
#X obj 1383 386 delwrite~ g 1000;
#X obj 1502 385 delwrite~ h 1000;
#X obj 1065 453 delread4~ e;
#X obj 1180 454 delread4~ f;
#X obj 1292 451 delread4~ g;
#X obj 1398 449 delread4~ h;
#X obj 1061 422 sig~ 300;
#X obj 1192 419 sig~ 234;
#X obj 1292 422 sig~ 457;
#X obj 1398 419 sig~ 255;
#X obj 1487 589 tabwrite~ grains;
#X obj 1510 526 metro 10000;
#X obj 1510 502 tgl 20 0 empty empty empty 0 -10 0 12 #fcfcfc #000000 #000000 0 1;
#X obj 1861 113 array define grains 480000;
#X obj 2126 420 tabread4~ grains;
#X obj 2177 186 tgl 20 0 empty empty empty 0 -10 0 12 #fcfcfc #000000 #000000 0 1;
#X obj 2099 281 random 480000;
#X obj 2176 343 line~;
#X obj 2103 345 sig~;
#X msg 2192 308 0 \, 1 25;
#X obj 2253 346 line~;
#X msg 2258 311 1 \, 0 25;
#X obj 2218 275 sel 0;
#X obj 2228 249 random 2;
#X obj 2240 392 lop~ 100;
#X obj 2182 463 *~;
#X obj 2174 219 metro 100;
#X obj 2226 177 random 100;
#X obj 2248 205 + 25;
#X obj 2360 420 tabread4~ grains;
#X obj 2411 186 tgl 20 0 empty empty empty 0 -10 0 12 #fcfcfc #000000 #000000 0 1;
#X obj 2333 281 random 480000;
#X obj 2410 343 line~;
#X obj 2337 345 sig~;
#X obj 2487 346 line~;
#X obj 2452 275 sel 0;
#X obj 2462 249 random 2;
#X obj 2474 392 lop~ 100;
#X obj 2409 471 *~;
#X obj 2408 219 metro 100;
#X obj 2460 177 random 100;
#X obj 2482 205 + 50;
#X obj 1608 524 catch~ grainsm;
#X obj 1526 556 *~ 0.5;
#X obj 2409 369 *~ 2400;
#X obj 2175 369 *~ 2400;
#X obj 1662 484 throw~ grainsm;
#X obj 1661 407 tabread4~ grains;
#X obj 1714 150 tgl 20 0 empty empty empty 0 -10 0 12 #fcfcfc #000000 #000000 0 1;
#X obj 1623 295 random 480000;
#X obj 1727 326 line~;
#X obj 1623 327 sig~;
#X obj 1788 333 line~;
#X obj 1755 263 sel 0;
#X obj 1755 237 random 2;
#X obj 1788 365 lop~ 100;
#X obj 1661 446 *~;
#X obj 1704 181 metro 100;
#X obj 1783 167 random 100;
#X obj 1783 192 + 25;
#X obj 1895 407 tabread4~ grains;
#X obj 1946 173 tgl 20 0 empty empty empty 0 -10 0 12 #fcfcfc #000000 #000000 0 1;
#X obj 1868 268 random 480000;
#X obj 1945 330 line~;
#X obj 1872 332 sig~;
#X obj 2022 333 line~;
#X obj 1987 262 sel 0;
#X obj 1997 236 random 2;
#X obj 2009 379 lop~ 100;
#X obj 1944 458 *~;
#X obj 1943 206 metro 100;
#X obj 1995 164 random 100;
#X obj 2017 192 + 50;
#X obj 1944 356 *~ 2400;
#X obj 1726 352 *~ 2400;
#X obj 1609 607 master;
#X msg 1961 295 0 \, 1 100;
#X msg 2027 298 1 \, 0 100;
#X msg 2426 308 0 \, 1 12.5;
#X msg 2492 311 1 \, 0 12.5;
#X msg 1791 298 1 \, 0 50;
#X msg 1727 295 0 \, 1 50;
#X obj 1625 566 rev3~, f 29;
#X msg 1716 540 98;
#X msg 1794 539 50;
#X text 1714 114 turn this on;
#X obj 1750 509 loadbang;
#X obj 1513 470 loadbang;
#X connect 4 0 5 0;
#X connect 5 0 3 0;
#X connect 6 0 5 1;
#X connect 7 0 10 0;
#X connect 7 0 13 0;
#X connect 9 0 8 0;
#X connect 10 0 9 0;
#X connect 11 0 9 1;
#X connect 11 0 10 1;
#X connect 12 0 13 1;
#X connect 12 0 14 1;
#X connect 13 0 14 0;
#X connect 14 0 15 0;
#X connect 16 0 19 0;
#X connect 17 0 16 0;
#X connect 18 0 19 1;
#X connect 18 0 20 1;
#X connect 18 0 16 1;
#X connect 18 0 17 1;
#X connect 19 0 20 0;
#X connect 20 0 21 0;
#X connect 22 0 17 0;
#X connect 23 0 32 0;
#X connect 23 0 33 0;
#X connect 23 0 34 0;
#X connect 23 0 35 0;
#X connect 23 0 36 0;
#X connect 23 0 37 0;
#X connect 23 0 38 0;
#X connect 23 0 39 0;
#X connect 32 0 42 0;
#X connect 33 0 58 0;
#X connect 34 0 61 0;
#X connect 35 0 64 0;
#X connect 36 0 49 0;
#X connect 37 0 45 0;
#X connect 38 0 52 0;
#X connect 39 0 55 0;
#X connect 40 0 41 0;
#X connect 41 0 42 1;
#X connect 42 0 75 0;
#X connect 43 0 44 0;
#X connect 44 0 45 1;
#X connect 45 0 91 0;
#X connect 46 0 43 0;
#X connect 47 0 48 0;
#X connect 48 0 49 1;
#X connect 49 0 90 0;
#X connect 50 0 51 0;
#X connect 51 0 52 1;
#X connect 52 0 92 0;
#X connect 53 0 54 0;
#X connect 54 0 55 1;
#X connect 55 0 93 0;
#X connect 56 0 57 0;
#X connect 57 0 58 1;
#X connect 58 0 78 0;
#X connect 59 0 60 0;
#X connect 60 0 61 1;
#X connect 61 0 80 0;
#X connect 62 0 63 0;
#X connect 63 0 64 1;
#X connect 64 0 82 0;
#X connect 65 0 59 0;
#X connect 66 0 50 0;
#X connect 67 0 53 0;
#X connect 68 0 40 0;
#X connect 69 0 47 0;
#X connect 70 0 62 0;
#X connect 71 0 56 0;
#X connect 72 0 77 0;
#X connect 73 0 74 0;
#X connect 74 0 77 0;
#X connect 76 0 24 0;
#X connect 76 0 102 0;
#X connect 77 0 23 0;
#X connect 79 0 25 0;
#X connect 79 0 102 0;
#X connect 81 0 26 0;
#X connect 81 0 102 0;
#X connect 83 0 27 0;
#X connect 83 0 102 0;
#X connect 84 0 79 0;
#X connect 85 0 81 0;
#X connect 86 0 83 0;
#X connect 87 0 88 0;
#X connect 88 0 77 1;
#X connect 94 0 28 0;
#X connect 94 0 102 0;
#X connect 95 0 29 0;
#X connect 95 0 102 0;
#X connect 96 0 30 0;
#X connect 96 0 102 0;
#X connect 97 0 31 0;
#X connect 97 0 102 0;
#X connect 98 0 94 0;
#X connect 99 0 95 0;
#X connect 100 0 96 0;
#X connect 101 0 97 0;
#X connect 103 0 102 0;
#X connect 104 0 103 0;
#X connect 106 0 117 0;
#X connect 107 0 118 0;
#X connect 108 0 110 0;
#X connect 109 0 137 0;
#X connect 110 0 106 0;
#X connect 111 0 109 0;
#X connect 112 0 116 0;
#X connect 113 0 112 0;
#X connect 114 0 111 0;
#X connect 114 0 113 0;
#X connect 115 0 114 0;
#X connect 116 0 117 1;
#X connect 117 0 138 0;
#X connect 118 0 108 0;
#X connect 118 0 115 0;
#X connect 118 0 119 0;
#X connect 119 0 120 0;
#X connect 120 0 118 1;
#X connect 121 0 130 0;
#X connect 122 0 131 0;
#X connect 123 0 125 0;
#X connect 124 0 136 0;
#X connect 125 0 121 0;
#X connect 126 0 129 0;
#X connect 127 0 171 0;
#X connect 127 0 170 0;
#X connect 128 0 127 0;
#X connect 129 0 130 1;
#X connect 130 0 138 0;
#X connect 131 0 123 0;
#X connect 131 0 128 0;
#X connect 131 0 132 0;
#X connect 132 0 133 0;
#X connect 133 0 131 1;
#X connect 134 0 135 0;
#X connect 134 0 167 0;
#X connect 134 0 174 0;
#X connect 135 0 102 0;
#X connect 136 0 121 0;
#X connect 137 0 106 0;
#X connect 139 0 148 0;
#X connect 140 0 149 0;
#X connect 140 0 153 0;
#X connect 140 0 107 0;
#X connect 140 0 122 0;
#X connect 141 0 143 0;
#X connect 142 0 166 0;
#X connect 143 0 139 0;
#X connect 144 0 147 0;
#X connect 145 0 173 0;
#X connect 145 0 172 0;
#X connect 146 0 145 0;
#X connect 147 0 148 1;
#X connect 148 0 138 0;
#X connect 149 0 141 0;
#X connect 149 0 146 0;
#X connect 149 0 150 0;
#X connect 150 0 151 0;
#X connect 151 0 149 1;
#X connect 152 0 161 0;
#X connect 153 0 162 0;
#X connect 154 0 156 0;
#X connect 155 0 165 0;
#X connect 156 0 152 0;
#X connect 157 0 160 0;
#X connect 158 0 169 0;
#X connect 158 0 168 0;
#X connect 159 0 158 0;
#X connect 160 0 161 1;
#X connect 161 0 138 0;
#X connect 162 0 154 0;
#X connect 162 0 159 0;
#X connect 162 0 163 0;
#X connect 163 0 164 0;
#X connect 164 0 162 1;
#X connect 165 0 152 0;
#X connect 166 0 139 0;
#X connect 168 0 155 0;
#X connect 169 0 157 0;
#X connect 170 0 124 0;
#X connect 171 0 126 0;
#X connect 172 0 144 0;
#X connect 173 0 142 0;
#X connect 174 0 167 0;
#X connect 175 0 174 2;
#X connect 175 0 174 3;
#X connect 176 0 174 5;
#X connect 178 0 175 0;
#X connect 178 0 176 0;
#X connect 179 0 104 0;
